<svg width="25" height="25" viewBox="0 0 25 25" fill="none" xmlns="http://www.w3.org/2000/svg">
<g clip-path="url(#clip0_32_105)">
<path d="M24.0772 7.84562C24.021 6.5704 23.8148 5.69371 23.5194 4.93404C23.2146 4.12767 22.7458 3.40572 22.1315 2.80557C21.5314 2.19608 20.8047 1.72247 20.0076 1.42249C19.2436 1.12708 18.3714 0.920863 17.0962 0.864639C15.8115 0.803653 15.4036 0.789551 12.1452 0.789551C8.88675 0.789551 8.47889 0.803653 7.19892 0.859877C5.9237 0.916101 5.04701 1.1225 4.28752 1.41773C3.48097 1.72247 2.75902 2.19131 2.15887 2.80557C1.54938 3.40572 1.07596 4.13243 0.775789 4.92946C0.480382 5.69371 0.274165 6.56564 0.217941 7.84085C0.156955 9.12559 0.142853 9.53345 0.142853 12.7919C0.142853 16.0503 0.156955 16.4582 0.213179 17.7382C0.269403 19.0134 0.475803 19.8901 0.77121 20.6498C1.07596 21.4561 1.54938 22.1781 2.15887 22.7782C2.75902 23.3877 3.48573 23.8613 4.28276 24.1613C5.04701 24.4567 5.91894 24.6629 7.19434 24.7192C8.47413 24.7756 8.88217 24.7895 12.1406 24.7895C15.3991 24.7895 15.8069 24.7756 17.0869 24.7192C18.3621 24.6629 19.2388 24.4567 19.9983 24.1613C21.6112 23.5377 22.8864 22.2625 23.51 20.6498C23.8052 19.8855 24.0116 19.0134 24.0679 17.7382C24.1241 16.4582 24.1382 16.0503 24.1382 12.7919C24.1382 9.53345 24.1334 9.12559 24.0772 7.84562ZM21.916 17.6444C21.8643 18.8165 21.6674 19.4494 21.5033 19.8714C21.1001 20.917 20.2703 21.7468 19.2247 22.15C18.8027 22.3141 18.1652 22.511 16.9977 22.5625C15.7318 22.6189 15.3522 22.6328 12.15 22.6328C8.94773 22.6328 8.56332 22.6189 7.30202 22.5625C6.12992 22.511 5.49698 22.3141 5.07503 22.15C4.55472 21.9577 4.08112 21.653 3.69671 21.2545C3.29819 20.8653 2.99345 20.3965 2.80115 19.8762C2.63705 19.4542 2.44018 18.8165 2.38871 17.6492C2.33231 16.3833 2.31839 16.0035 2.31839 12.8012C2.31839 9.59901 2.33231 9.2146 2.38871 7.95349C2.44018 6.78138 2.63705 6.14845 2.80115 5.72649C2.99345 5.206 3.29819 4.73258 3.70147 4.34799C4.09046 3.94947 4.5593 3.64472 5.07979 3.45261C5.50175 3.28851 6.13944 3.09164 7.30679 3.03999C8.57266 2.98377 8.95249 2.96966 12.1545 2.96966C15.3615 2.96966 15.7412 2.98377 17.0025 3.03999C18.1746 3.09164 18.8075 3.28851 19.2295 3.45261C19.7498 3.64472 20.2234 3.94947 20.6078 4.34799C21.0063 4.73716 21.311 5.206 21.5033 5.72649C21.6674 6.14845 21.8643 6.78596 21.916 7.95349C21.9722 9.21936 21.9863 9.59901 21.9863 12.8012C21.9863 16.0035 21.9722 16.3785 21.916 17.6444Z" fill="#222222"/>
<path d="M12.1453 6.62646C8.7416 6.62646 5.98001 9.38787 5.98001 12.7917C5.98001 16.1956 8.7416 18.957 12.1453 18.957C15.5491 18.957 18.3105 16.1956 18.3105 12.7917C18.3105 9.38787 15.5491 6.62646 12.1453 6.62646ZM12.1453 16.791C9.93714 16.791 8.14602 15 8.14602 12.7917C8.14602 10.5834 9.93714 8.79248 12.1453 8.79248C14.3536 8.79248 16.1445 10.5834 16.1445 12.7917C16.1445 15 14.3536 16.791 12.1453 16.791Z" fill="#222222"/>
<path d="M19.9938 6.38291C19.9938 7.17775 19.3493 7.82222 18.5543 7.82222C17.7595 7.82222 17.115 7.17775 17.115 6.38291C17.115 5.58789 17.7595 4.9436 18.5543 4.9436C19.3493 4.9436 19.9938 5.58789 19.9938 6.38291Z" fill="#222222"/>
</g>
<defs>
<clipPath id="clip0_32_105">
<rect width="24" height="24" fill="white" transform="translate(0.100708 0.789551)"/>
</clipPath>
</defs>
</svg>
