<svg width="25" height="25" viewBox="0 0 25 25" fill="none" xmlns="http://www.w3.org/2000/svg">
<g clip-path="url(#clip0_32_101)">
<path d="M24.1007 5.34805C23.2082 5.73955 22.2572 5.99905 21.2657 6.12505C22.2857 5.51605 23.0642 4.55905 23.4302 3.40555C22.4792 3.97255 21.4292 4.37305 20.3102 4.59655C19.4072 3.63505 18.1202 3.03955 16.7162 3.03955C13.9922 3.03955 11.7992 5.25055 11.7992 7.96105C11.7992 8.35105 11.8322 8.72605 11.9132 9.08305C7.82271 8.88355 4.20321 6.92305 1.77171 3.93655C1.34721 4.67305 1.09821 5.51605 1.09821 6.42355C1.09821 8.12755 1.97571 9.63805 3.28371 10.5126C2.49321 10.4976 1.71771 10.2681 1.06071 9.90655C1.06071 9.92155 1.06071 9.94105 1.06071 9.96055C1.06071 12.3516 2.76621 14.3376 5.00271 14.7951C4.60221 14.9046 4.16571 14.9571 3.71271 14.9571C3.39771 14.9571 3.07971 14.9391 2.78121 14.8731C3.41871 16.8216 5.22771 18.2541 7.37871 18.3006C5.70471 19.6101 3.57921 20.3991 1.27821 20.3991C0.874708 20.3991 0.487708 20.3811 0.100708 20.3316C2.28021 21.7371 4.86321 22.5396 7.64871 22.5396C16.7027 22.5396 21.6527 15.0396 21.6527 8.53855C21.6527 8.32105 21.6452 8.11105 21.6347 7.90255C22.6112 7.20955 23.4317 6.34405 24.1007 5.34805Z" fill="#222222"/>
</g>
<defs>
<clipPath id="clip0_32_101">
<rect width="24" height="24" fill="white" transform="translate(0.100708 0.789551)"/>
</clipPath>
</defs>
</svg>
